<?xml version="1.0" standalone="no"?>
<svg version="1.0" xmlns="http://www.w3.org/2000/svg"
 width="128.000000pt" height="128.000000pt" viewBox="0 0 128.000000 128.000000"
 preserveAspectRatio="xMidYMid meet">

<g transform="translate(0.000000,128.000000) scale(0.100000,-0.100000)"
fill="#000000" stroke="none">
<path d="M356 1025 c-14 -13 -26 -29 -26 -35 0 -6 -33 -10 -87 -10 -94 0 -120
-8 -110 -34 5 -13 23 -16 92 -16 l86 0 38 -40 c47 -49 93 -54 139 -15 36 30
47 66 32 110 -22 66 -112 88 -164 40z m108 -41 c20 -19 20 -34 0 -62 -18 -26
-50 -28 -76 -5 -34 31 -12 83 37 83 13 0 31 -7 39 -16z"/>
<path d="M597 973 c-4 -3 -7 -15 -7 -25 0 -17 15 -18 280 -18 248 0 281 2 287
16 3 9 0 20 -8 25 -16 10 -542 12 -552 2z"/>
<path d="M624 705 l-33 -35 -218 0 c-120 0 -224 -4 -232 -9 -8 -5 -11 -16 -8
-25 6 -14 35 -16 236 -16 220 0 230 -1 236 -20 10 -30 59 -60 100 -60 27 0 44
8 66 29 64 65 20 171 -72 171 -35 0 -47 -6 -75 -35z m114 -27 c31 -31 4 -88
-42 -88 -37 0 -61 61 -34 88 15 15 61 15 76 0z"/>
<path d="M870 655 c-24 -29 0 -35 141 -35 119 0 141 2 146 16 10 27 -18 34
-148 34 -99 0 -129 -3 -139 -15z"/>
<path d="M530 423 c-23 -9 -60 -45 -60 -60 0 -10 -38 -13 -167 -15 -160 -3
-168 -4 -168 -23 0 -19 8 -20 168 -23 129 -2 167 -5 167 -15 0 -21 43 -56 77
-63 72 -14 136 61 112 133 -17 53 -79 84 -129 66z m70 -63 c11 -11 20 -27 20
-35 0 -18 -35 -55 -53 -55 -25 0 -54 30 -54 55 0 25 29 55 54 55 7 0 22 -9 33
-20z"/>
<path d="M733 335 c-3 -9 -1 -21 4 -26 5 -5 93 -8 214 -7 196 3 204 4 204 23
0 19 -8 20 -208 23 -182 2 -208 0 -214 -13z"/>
</g>
</svg>
